<svg width="535" height="562" viewBox="0 0 535 562" fill="none" xmlns="http://www.w3.org/2000/svg">
<mask id="mask0_3_15" style="mask-type:alpha" maskUnits="userSpaceOnUse" x="0" y="0" width="535" height="562">
<path d="M534.289 266.608C536.289 413.708 417.189 561.708 269.889 561.708H267.489C267.389 561.708 267.389 561.708 267.189 561.708H264.989C117.689 561.708 -1.41094 413.708 0.589058 266.608C2.58906 109.208 -35.4109 -3.99213 267.089 0.107874H267.189C267.289 0.107874 267.289 0.107874 267.489 0.107874C267.489 0.107874 267.589 0.107874 267.789 0.107874C570.289 -3.99213 532.289 109.208 534.289 266.608Z" fill="#D9D9D9"/>
</mask>
<g mask="url(#mask0_3_15)">
<rect width="535" height="562" fill="#3AB6E7"/>
<path d="M89.0845 163.157L10.879 345.726L-23.5 461L17.5 564L266.5 561.5L515.75 562L549.5 461L525.414 340.369L445.64 141.147L378.502 274.089L267.36 51.7954L156.051 274.58L89.0845 163.157Z" fill="url(#paint0_linear_3_15)"/>
<path d="M378.583 274.089L267.442 51.7954L188.682 210.043L270.179 145.826L425.693 407.079L377.225 279.488L378.583 274.089Z" fill="white"/>
<path d="M526.697 343.926L445.716 141.154L398.957 233.442L444.155 198.114L523.757 352.747C524.893 348.798 526.697 343.926 526.697 343.926Z" fill="white"/>
<path d="M93.1711 214.808L49.8017 255.196L89.1631 163.161L156.129 274.574L155.171 279.808L183.671 353.808L93.1711 214.808Z" fill="white"/>
</g>
<defs>
<linearGradient id="paint0_linear_3_15" x1="-246.898" y1="812.95" x2="652.524" y2="170.225" gradientUnits="userSpaceOnUse">
<stop stop-color="#294680"/>
<stop offset="0.6071" stop-color="#294680"/>
<stop offset="0.689" stop-color="#2C5CA7"/>
<stop offset="0.7792" stop-color="#2F70CA"/>
<stop offset="0.8639" stop-color="#317FE4"/>
<stop offset="0.94" stop-color="#3288F4"/>
<stop offset="1" stop-color="#338CFA"/>
</linearGradient>
</defs>
</svg>
