<svg width="1917" height="562" viewBox="0 0 1917 562" fill="none" xmlns="http://www.w3.org/2000/svg">
<path d="M726.89 324.708C777.99 312.008 800.89 280.908 800.89 236.708C800.89 208.008 790.59 183.408 770.99 166.908C752.59 151.208 732.29 145.708 693.39 145.708H611.589V429.408H664.289V320.908L738.789 429.508H803.69L726.89 324.708ZM664.289 281.308V196.108H687.69C737.59 196.108 747.89 213.008 747.89 238.308C747.89 268.208 730.69 281.308 689.99 281.308H664.289Z" fill="#294680"/>
<path d="M811.89 135.008V186.108H862.99V135.008H811.89ZM811.49 216.808V429.508H862.589V216.808H811.49Z" fill="#294680"/>
<path d="M883.789 145.808V429.508H934.789V145.808H883.789Z" fill="#294680"/>
<path d="M1123.89 216.808V245.208C1106.19 221.808 1085.19 211.808 1054.39 211.808C991.39 211.808 946.19 259.008 946.19 323.908C946.19 387.908 991.089 434.408 1053.19 434.408C1083.19 434.408 1103.49 424.808 1123.79 401.708V429.408H1170.69V216.808H1123.89ZM1060.59 387.708C1023.39 387.708 997.589 362.308 997.589 325.008C997.589 286.308 1023.29 258.608 1059.79 258.608C1096.29 258.608 1122.39 285.808 1122.39 324.708C1122.49 360.008 1099.39 387.708 1060.59 387.708Z" fill="#294680"/>
<path d="M1333.29 140.808C1248.79 140.808 1183.49 205.008 1183.49 287.808C1183.49 369.608 1249.59 434.508 1332.89 434.508C1415.49 434.508 1479.19 370.308 1479.19 287.508C1479.19 206.408 1414.29 140.808 1333.29 140.808ZM1332.59 383.808C1278.79 383.808 1236.59 341.608 1236.59 287.808C1236.59 232.908 1277.99 191.508 1332.59 191.508C1385.19 191.508 1426.19 233.608 1426.19 288.208C1426.19 342.708 1386.29 383.808 1332.59 383.808Z" fill="#3AB6E7"/>
<path d="M1669.79 242.508C1655.99 222.608 1632.99 211.908 1603.39 211.908C1579.19 211.908 1562.29 219.108 1543.49 237.208V216.908H1496.29V429.608H1547.39V329.308C1547.39 300.908 1549.29 288.608 1555.79 278.208C1563.89 265.508 1577.39 258.608 1593.49 258.608C1618.79 258.608 1634.19 268.608 1634.19 325.408V429.408H1685.29V315.408C1685.29 277.508 1681.39 259.108 1669.79 242.508Z" fill="#3AB6E7"/>
<path d="M1916.49 326.208C1916.49 260.108 1869.99 211.808 1806.69 211.808C1743.99 211.808 1694.59 261.308 1694.59 323.908C1694.59 386.008 1744.79 434.408 1809.69 434.408C1846.69 434.408 1884.59 416.508 1903.39 383.708L1834.79 382.808C1827.49 386.108 1819.09 387.608 1808.59 387.608C1778.19 387.608 1755.89 371.408 1749.79 345.708H1914.59C1916.09 338.508 1916.49 333.908 1916.49 326.208ZM1748.29 300.908C1756.39 273.708 1777.09 258.708 1807.49 258.708C1838.99 258.708 1859.59 273.708 1866.19 300.908H1748.29Z" fill="#3AB6E7"/>
<mask id="mask0_1_2" style="mask-type:alpha" maskUnits="userSpaceOnUse" x="0" y="0" width="535" height="562">
<path d="M534.289 266.608C536.289 413.708 417.189 561.708 269.889 561.708H267.489C267.389 561.708 267.389 561.708 267.189 561.708H264.989C117.689 561.708 -1.41094 413.708 0.589058 266.608C2.58906 109.208 -35.4109 -3.99213 267.089 0.107874H267.189C267.289 0.107874 267.289 0.107874 267.489 0.107874C267.489 0.107874 267.589 0.107874 267.789 0.107874C570.289 -3.99213 532.289 109.208 534.289 266.608Z" fill="#3AB6E7"/>
</mask>
<g mask="url(#mask0_1_2)">
<path d="M534.289 266.608C536.289 413.708 417.189 561.708 269.889 561.708H267.489C267.389 561.708 267.389 561.708 267.189 561.708H264.989C117.689 561.708 -1.41094 413.708 0.589058 266.608C2.58906 109.208 -35.4109 -3.99213 267.089 0.107874H267.189C267.289 0.107874 267.289 0.107874 267.489 0.107874C267.489 0.107874 267.589 0.107874 267.789 0.107874C570.289 -3.99213 532.289 109.208 534.289 266.608Z" fill="#3AB6E7"/>
<path d="M13 571.5L514 573L549.5 461L525.414 340.369L445.64 141.147L378.502 274.089L267.36 51.7954L156.051 274.58L89.0845 163.157L10.879 345.726L-23.5 461L13 571.5Z" fill="url(#paint0_linear_1_2)"/>
<path d="M378.583 274.089L267.442 51.7954L188.682 210.043L270.179 145.826L425.693 407.079L377.225 279.488L378.583 274.089Z" fill="white"/>
<path d="M526.697 343.926L445.716 141.154L398.957 233.442L444.155 198.114L523.757 352.747C524.893 348.798 526.697 343.926 526.697 343.926Z" fill="white"/>
<path d="M93.1711 214.808L49.8017 255.196L89.1631 163.161L156.129 274.574L155.171 279.808L183.671 353.808L93.1711 214.808Z" fill="white"/>
</g>
<defs>
<linearGradient id="paint0_linear_1_2" x1="-246.898" y1="812.95" x2="652.524" y2="170.225" gradientUnits="userSpaceOnUse">
<stop stop-color="#294680"/>
<stop offset="0.6071" stop-color="#294680"/>
<stop offset="0.689" stop-color="#2C5CA7"/>
<stop offset="0.7792" stop-color="#2F70CA"/>
<stop offset="0.8639" stop-color="#317FE4"/>
<stop offset="0.94" stop-color="#3288F4"/>
<stop offset="1" stop-color="#338CFA"/>
</linearGradient>
</defs>
</svg>
